# xmcd
#
# Track frame offsets: 
#        150
#        15118
#        36336
#        56217
#        79961
#        98842
#        115041
#        132365
#        159359
#        179975
#        202572
#        223455
#
# Disc length: 3356 seconds
#
# Revision: 0
# Processed by: cddbd v1.4PL0 Copyright (c) Steve Scherf et al.
# Submitted via: ExactAudioCopy v0.90b4
#
DISCID=a40d1a0c
DTITLE=Microwave Dave and the Nukes - Atomic Electric
DYEAR=2003
DGENRE=Blues
TTITLE0=Shady Muscadine
TTITLE1=Shot Gun Slim
TTITLE2=It's All Right Now
TTITLE3=Trail Of Tears
TTITLE4=Mary Ann
TTITLE5=Moon Winx
TTITLE6=Courtin' In A Cadillac
TTITLE7=Anna Lee
TTITLE8=The River's Invitation
TTITLE9=Night Train
TTITLE10=Sleep Walk
TTITLE11=Highway 49
EXTD=
EXTT0=
EXTT1=
EXTT2=
EXTT3=
EXTT4=
EXTT5=
EXTT6=
EXTT7=
EXTT8=
EXTT9=
EXTT10=
EXTT11=
PLAYORDER=
